<?xml version="1.0" encoding="UTF-8" standalone="no"?>
<svg width="98px" height="44px" viewBox="0 0 98 44" version="1.1" xmlns="http://www.w3.org/2000/svg" xmlns:xlink="http://www.w3.org/1999/xlink" xmlns:sketch="http://www.bohemiancoding.com/sketch/ns">
    <!-- Generator: Sketch 3.4.2 (15857) - http://www.bohemiancoding.com/sketch -->
    <title>logo</title>
    <desc>Created with Sketch.</desc>
    <defs>
        <path id="path-1" d="M0,0.167692308 L97.7929057,0.167692308 L97.7929057,44 L0,44"></path>
    </defs>
    <g id="Page-1" stroke="none" stroke-width="1" fill="none" fill-rule="evenodd" sketch:type="MSPage">
        <g id="Navigation" sketch:type="MSArtboardGroup" transform="translate(-45.000000, -1248.000000)">
            <g id="dropdowns" sketch:type="MSLayerGroup" transform="translate(30.000000, 602.000000)">
                <g id="SEARCH" transform="translate(0.000000, 636.000000)">
                    <g id="AUTH">
                        <g id="logo" transform="translate(11.000000, 9.000000)">
                            <g id="current" transform="translate(1.000000, 2.000000)"></g>
                            <g id="new-C" transform="translate(4.000000, 1.000000)">
                                <path d="M2.07846289,29.1192923 L2.07846289,29.1192923 C0.930506918,29.1192923 0.00012327044,28.1900615 0.00012327044,27.0442154 L0.00012327044,17.1236 C0.00012327044,15.9774462 0.930506918,15.0485231 2.07846289,15.0485231 L2.07846289,15.0485231 C3.22641887,15.0485231 4.15680252,15.9774462 4.15680252,17.1236 L4.15680252,27.0442154 C4.15680252,28.1900615 3.22641887,29.1192923 2.07846289,29.1192923" id="Fill-1" fill="#3CBDB1" sketch:type="MSShapeGroup"></path>
                                <path d="M8.87149623,38.2299385 L8.87149623,38.2299385 C7.72354025,38.2299385 6.7931566,37.3007077 6.7931566,36.1548615 L6.7931566,8.01301538 C6.7931566,6.86686154 7.72354025,5.93793846 8.87149623,5.93793846 L8.87149623,5.93793846 C10.0194522,5.93793846 10.9498358,6.86686154 10.9498358,8.01301538 L10.9498358,36.1548615 C10.9498358,37.3007077 10.0194522,38.2299385 8.87149623,38.2299385" id="Fill-3" fill="#3CBDB1" sketch:type="MSShapeGroup"></path>
                                <path d="M22.4575321,44 L22.4575321,44 C21.3095761,44 20.3791925,43.0707692 20.3791925,41.9249231 L20.3791925,2.24307692 C20.3791925,1.09692308 21.3095761,0.167692308 22.4575321,0.167692308 L22.4575321,0.167692308 C23.6054881,0.167692308 24.5358717,1.09692308 24.5358717,2.24307692 L24.5358717,41.9249231 C24.5358717,43.0707692 23.6054881,44 22.4575321,44" id="Fill-5" fill="#3CBDB1" sketch:type="MSShapeGroup"></path>
                                <path d="M29.2505654,37.4200923 L29.2505654,37.4200923 C28.1026094,37.4200923 27.1722258,36.4908615 27.1722258,35.3450154 L27.1722258,8.92409231 C27.1722258,7.77793846 28.1026094,6.84901538 29.2505654,6.84901538 L29.2505654,6.84901538 C30.3985214,6.84901538 31.328905,7.77793846 31.328905,8.92409231 L31.328905,35.3450154 C31.328905,36.4908615 30.3985214,37.4200923 29.2505654,37.4200923" id="Fill-7" fill="#3CBDB1" sketch:type="MSShapeGroup"></path>
                                <path d="M15.6644987,32.966 L15.6644987,32.966 C14.5165428,32.966 13.5861591,32.0367692 13.5861591,30.8909231 L13.5861591,13.378 C13.5861591,12.2321538 14.5165428,11.3029231 15.6644987,11.3029231 L15.6644987,11.3029231 C16.8124547,11.3029231 17.7428384,12.2321538 17.7428384,13.378 L17.7428384,30.8909231 C17.7428384,32.0367692 16.8124547,32.966 15.6644987,32.966" id="Fill-9" fill="#3CBDB1" sketch:type="MSShapeGroup"></path>
                                <path d="M52.0443792,27.7947077 C52.950417,28.6264 52.906656,30.0811692 51.9334358,30.8331692 C51.469939,31.1913231 50.9771654,31.5128615 50.4544987,31.7980923 C49.2452157,32.4851692 47.8454799,32.8420923 46.2552912,32.8688615 C43.841656,32.8688615 41.7229453,32.0227077 39.8994673,30.3294769 C38.0103478,28.6368615 37.0399013,25.8944 36.9875113,22.1020923 C37.0399013,18.2697846 38.0112723,15.4931692 39.9019327,13.7731692 C41.7269516,12.0805538 43.8472031,11.2476308 46.2633038,11.2744 C47.8519516,11.3017846 49.2501465,11.6393231 50.4581969,12.2879385 C51.0033604,12.5867077 51.5164736,12.9310154 51.9975365,13.3208615 C52.9442535,14.0876308 52.9790774,15.5196308 52.0801277,16.3420923 L51.9805868,16.4331692 C51.2650019,17.0876308 50.1907,17.1100923 49.4196434,16.5217846 C48.5730836,15.8756308 47.5715113,15.5344 46.4152346,15.4980923 C42.9199013,15.4439385 41.1460396,17.6454769 41.0936497,22.1020923 C41.1460396,26.5319385 42.9195931,28.7134769 46.4149264,28.6454769 C47.570895,28.6273231 48.5724673,28.2953231 49.4193352,27.6491692 C50.1919327,27.0593231 51.2683918,27.0824 51.9842849,27.7396308 L52.0443792,27.7947077 Z" id="Fill-11" fill="#606E7A" sketch:type="MSShapeGroup"></path>
                                <path d="M57.8420962,32.966 L57.8420962,32.966 C56.6941403,32.966 55.7637566,32.0367692 55.7637566,30.8909231 L55.7637566,5.17861538 C55.7637566,4.03246154 56.6941403,3.10323077 57.8420962,3.10323077 L57.8420962,3.10323077 C58.9900522,3.10323077 59.9204358,4.03246154 59.9204358,5.17861538 L59.9204358,30.8909231 C59.9204358,32.0367692 58.9900522,32.966 57.8420962,32.966" id="Fill-13" fill="#606E7A" sketch:type="MSShapeGroup"></path>
                                <g id="Group-17">
                                    <mask id="mask-2" sketch:name="Clip 16" fill="white">
                                        <use xlink:href="#path-1"></use>
                                    </mask>
                                    <g id="Clip-16"></g>
                                    <path d="M93.4800119,25.2666462 C93.3481126,25.9614154 93.077534,26.5737231 92.6685843,27.1051077 C92.365339,27.5137231 91.9166346,27.8746462 91.3227792,28.1875692 C90.7551189,28.4869538 90.0953138,28.6368 89.3436723,28.6368 C88.6441126,28.6368 87.9978673,28.4869538 87.4040119,28.1875692 C86.8366597,27.8746462 86.3750119,27.5137231 86.0190686,27.1051077 C85.6625088,26.5737231 85.4264459,25.9614154 85.2686597,25.2666462 C85.1456975,24.7395692 85.0649553,23.9749538 85.0649553,22.9743385 L85.0649553,21.0961846 C85.0649553,20.0851077 85.1456975,19.3094154 85.2686597,18.7715692 C85.4264459,18.1048 85.673295,17.5192615 86.0295465,17.0149538 C86.3857981,16.5386462 86.8418987,16.1641846 87.4092509,15.8921846 C88.0031063,15.6060308 88.6468862,15.4629538 89.3464459,15.4629538 C90.0980874,15.4629538 90.7563516,15.6060308 91.3243201,15.8918769 C91.9181755,16.1641846 92.3659553,16.5386462 92.6692006,17.0149538 C93.0781503,17.5189538 93.3484208,18.1044923 93.4803201,18.7715692 C93.6122195,19.4663385 93.6781692,20.5688 93.6781692,22.0804923 C93.6781692,23.5238769 93.6119113,24.5860308 93.4800119,25.2666462 M97.3004711,16.9100308 C96.9587038,15.7429538 96.3814899,14.7595692 95.567905,13.9586462 C95.0279805,13.2531077 94.2643201,12.6220308 93.2772321,12.0654154 C92.2762761,11.5361846 90.9662195,11.2583385 89.3470623,11.2309538 C87.7806031,11.2580308 86.4967415,11.5346462 85.4960937,12.0611077 C84.4825025,12.6146462 83.692339,13.2423385 83.1265277,13.9441846 C82.3628673,14.7463385 81.7967478,15.7294154 81.4284774,16.8980308 C81.072534,18.0946462 80.9014962,19.8063385 80.9014962,22.0334154 L80.9079679,22.0334154 L80.9079679,22.0398769 L80.9079679,22.0368 L80.9079679,22.0398769 L80.9079679,39.0971077 C80.9079679,40.2349538 81.8466723,41.1574154 82.9863075,41.1574154 C84.1259428,41.1574154 85.0649553,40.2349538 85.0649553,39.0971077 L85.0649553,31.6897231 C85.1663453,31.7789538 85.3518673,31.8672615 85.515817,31.9528 C86.5158484,32.5364923 87.7886157,32.8414154 89.3544585,32.8688 C90.9729994,32.8414154 92.2772006,32.5364923 93.2769239,31.9528 C93.8168484,31.7088 94.2550748,31.4168 94.5971503,31.0777231 C94.9789805,30.7792615 95.2997918,30.4740308 95.5632824,30.1617231 C96.3790245,29.3066462 96.9574711,28.2958769 97.2998547,27.1288 C97.6283704,25.9617231 97.7929365,24.2657231 97.7929365,22.0398769 C97.7929365,19.8143385 97.6283704,18.1044923 97.3004711,16.9100308" id="Fill-15" fill="#606E7A" sketch:type="MSShapeGroup" mask="url(#mask-2)"></path>
                                </g>
                                <path d="M77.1475723,11.5385231 C76.2587925,11.5385231 75.4707862,12.0966769 75.1952767,12.9403692 L70.8327358,26.2849846 L70.7538428,26.2849846 L66.3872956,12.9188308 C66.1148679,12.0877538 65.294195,11.5320615 64.4830755,11.5320615 L64.4830755,11.5354462 C63.0636164,11.5354462 62.0811509,12.9274462 62.5575912,14.2452923 L68.8936918,31.8040615 L67.7660755,35.3456 C67.5824025,35.9560615 67.2578931,36.4176 66.7987107,36.7296 C66.3389119,37.0280615 65.8387421,37.1776 65.3009748,37.1776 C65.2590629,37.1776 65.2168428,37.1797538 65.1761635,37.1840615 C65.1339434,37.1812923 65.0920314,37.1776 65.049195,37.1776 C63.9456164,37.1776 63.050673,38.0686769 63.050673,39.1674462 C63.050673,40.2665231 63.9453082,41.1572923 65.0488868,41.1572923 C65.1253145,41.1572923 65.2005094,41.1520615 65.2747799,41.1437538 C65.334566,41.1517538 65.3949686,41.1572923 65.4569119,41.1572923 C66.7306038,41.1572923 67.8723962,40.8659077 68.883522,40.2837538 C69.8810881,39.6745231 70.6623145,38.5772923 71.2268931,36.9929846 L79.0884654,14.2579077 C79.5491887,12.9262154 78.5584025,11.5385231 77.1475723,11.5385231" id="Fill-18" fill="#606E7A" sketch:type="MSShapeGroup"></path>
                            </g>
                        </g>
                    </g>
                </g>
            </g>
        </g>
    </g>
</svg>