<?xml version="1.0" encoding="UTF-8" standalone="no"?>
<svg width="37px" height="32px" viewBox="0 0 37 32" version="1.1" xmlns="http://www.w3.org/2000/svg" xmlns:xlink="http://www.w3.org/1999/xlink">
    <!-- Generator: Sketch 3.6.1 (26313) - http://www.bohemiancoding.com/sketch -->
    <title>volume</title>
    <desc>Created with Sketch.</desc>
    <defs></defs>
    <g id="Clyp-3.0" stroke="none" stroke-width="1" fill="none" fill-rule="evenodd">
        <g id="homepage" transform="translate(-1280.000000, -16.000000)" fill="#D1D6DA">
            <g id="header">
                <g id="header-light">
                    <g id="auth---1" transform="translate(885.000000, 12.000000)">
                        <g id="volume" transform="translate(395.000000, 4.000000)">
                            <path d="M1.38508696,11.6235932 C0.623637681,11.6235932 -8.8817842e-16,12.2543729 -8.8817842e-16,13.0245424 L-8.8817842e-16,19.5915932 C-8.8817842e-16,20.3623051 0.623637681,20.9930847 1.38508696,20.9930847 L4.32846377,20.9930847 C5.08991304,20.9930847 6.22189855,21.3581017 6.8433913,21.8039322 L13.8476522,26.8360678 C14.4691449,27.2824407 14.9769565,27.016678 14.9769565,26.2465085 L14.9769565,6.72 C14.9769565,5.94983051 14.4594928,5.67105085 13.8278116,6.10061017 L6.86269565,10.8414915 C6.23101449,11.2710508 5.08991304,11.6235932 4.32792754,11.6235932 L1.38508696,11.6235932 L1.38508696,11.6235932 Z" id="Shape"></path>
                            <path d="M19.112913,10.3305763 C21.978,13.9834576 21.214942,18.1418305 18.923087,21.8635932 C18.0951449,23.208678 20.1918116,24.4387797 21.0170725,23.1002034 C23.9615217,18.3175593 24.3964058,13.1460339 20.8272464,8.59715254 C19.855058,7.35837288 18.1525217,9.10589831 19.112913,10.3305763 L19.112913,10.3305763 Z" id="Shape"></path>
                            <path d="M26.4265797,5.09450847 C25.4093478,3.89044068 23.7019855,5.63308475 24.7117101,6.8279322 C28.6937681,11.5422373 28.668029,21.0972203 24.7117101,25.8180339 C23.7078841,27.0161356 25.4136377,28.7598644 26.4265797,27.5514576 C31.2816232,21.7578305 31.3127246,10.88 26.4265797,5.09450847 L26.4265797,5.09450847 Z" id="Shape"></path>
                            <path d="M31.389942,0.482169492 C30.3389275,-0.692610169 28.6288841,1.04677966 29.6745362,2.21559322 C35.6658551,8.90955932 36.1313043,23.3583729 29.6745362,29.9042712 C28.5704348,31.0237288 30.2847681,32.7582373 31.389942,31.6376949 C38.8054928,24.1182373 38.2563913,8.15728814 31.389942,0.482169492 L31.389942,0.482169492 Z" id="Shape"></path>
                        </g>
                    </g>
                </g>
            </g>
        </g>
    </g>
</svg>